<?xml version="1.0" standalone="no"?>
<!DOCTYPE svg PUBLIC "-//W3C//DTD SVG 20010904//EN"
 "http://www.w3.org/TR/2001/REC-SVG-20010904/DTD/svg10.dtd">
<svg version="1.0" xmlns="http://www.w3.org/2000/svg"
 width="512.000000pt" height="512.000000pt" viewBox="0 0 512.000000 512.000000"
 preserveAspectRatio="xMidYMid meet">
<metadata>
Created by potrace 1.14, written by Peter Selinger 2001-2017
</metadata>
<g transform="translate(0.000000,512.000000) scale(0.100000,-0.100000)"
fill="#000000" stroke="none">
<path d="M3395 4492 c-3 -3 -11 -7 -18 -8 -27 -6 -54 -12 -97 -24 -25 -7 -52
-14 -60 -16 -46 -11 -287 -76 -300 -81 -8 -3 -24 -8 -35 -10 -11 -2 -53 -13
-93 -24 -40 -11 -81 -22 -90 -24 -9 -2 -118 -32 -242 -65 -124 -34 -235 -63
-247 -66 -12 -2 -33 -8 -47 -14 -13 -5 -27 -6 -30 -3 -3 4 -6 2 -6 -3 0 -5 -8
-10 -17 -11 -10 0 -29 -4 -43 -8 -14 -4 -32 -8 -40 -9 -8 -2 -41 -11 -72 -20
-31 -9 -66 -18 -78 -19 -11 -1 -20 -4 -20 -8 0 -4 -6 -6 -12 -6 -15 1 -92 -19
-124 -33 -12 -4 -25 -5 -30 0 -5 5 -22 10 -39 11 -16 2 -36 7 -42 12 -7 5 -13
6 -13 2 0 -4 -7 -2 -15 5 -8 7 -15 9 -15 5 0 -4 -8 -1 -17 6 -15 12 -16 12 -8
-1 7 -12 6 -13 -6 -4 -12 10 -100 36 -168 50 -13 3 -32 9 -43 15 -10 5 -18 8
-18 5 0 -3 -15 0 -32 5 -18 6 -41 12 -50 15 -10 2 -26 6 -35 9 -65 17 -101 26
-122 31 -14 3 -28 7 -33 10 -4 3 -16 7 -26 9 -10 2 -72 18 -137 35 -65 17
-125 33 -134 35 -42 10 -218 57 -231 62 -22 9 -21 9 -65 18 -22 4 -49 10 -60
12 -46 11 -175 4 -175 -9 0 -4 -7 -8 -15 -8 -50 0 -147 -101 -174 -183 -20
-59 -21 -78 -20 -1531 0 -1526 0 -1529 39 -1621 7 -16 13 -33 12 -37 -1 -5 3
-8 9 -8 5 0 8 -4 5 -9 -3 -5 1 -14 9 -21 8 -7 15 -19 15 -27 0 -8 5 -11 10 -8
6 3 10 0 10 -8 0 -20 100 -120 161 -161 69 -46 236 -106 272 -98 4 1 7 -3 7
-9 0 -5 4 -8 8 -5 4 2 39 -5 77 -16 39 -11 77 -21 85 -23 8 -1 22 -5 30 -8 49
-17 171 -47 203 -50 9 -1 17 -5 17 -10 0 -4 6 -7 13 -6 10 2 44 -6 117 -28 8
-2 15 -4 15 -4 0 1 85 -22 145 -39 41 -11 84 -23 95 -25 11 -2 70 -17 130 -34
61 -17 119 -33 130 -36 11 -2 37 -9 58 -14 30 -7 58 -3 145 20 59 16 206 55
327 86 121 31 223 62 227 67 4 6 8 8 8 5 0 -4 35 2 78 13 42 11 82 21 87 23
44 10 72 18 85 22 8 4 21 5 28 4 6 -1 12 2 12 7 0 5 13 9 30 10 16 0 35 4 42
9 7 4 18 8 23 9 39 7 100 22 100 24 0 1 7 3 15 5 8 2 49 13 90 25 41 12 84 23
95 25 11 2 44 11 73 19 28 8 52 12 52 9 0 -3 6 -1 13 4 11 9 96 33 122 34 6 1
19 6 29 11 22 12 90 13 108 2 7 -5 26 -9 41 -10 16 -2 35 -8 43 -14 8 -7 14
-10 14 -7 0 3 15 1 33 -4 30 -9 41 -12 85 -23 9 -3 53 -14 97 -26 44 -12 87
-23 95 -26 8 -2 40 -10 70 -19 30 -9 64 -18 75 -20 32 -7 258 -67 275 -72 8
-3 22 -7 30 -8 8 -2 49 -12 90 -23 41 -12 102 -28 135 -37 33 -9 78 -21 100
-27 22 -5 49 -12 60 -15 42 -11 156 -12 187 -2 46 15 98 42 98 51 0 5 5 8 11
8 19 0 59 51 87 110 l27 55 0 1515 c0 1647 4 1525 -52 1645 -27 60 -132 195
-150 195 -5 0 -15 9 -23 20 -8 11 -20 20 -27 20 -7 0 -13 3 -13 8 0 7 -113 64
-135 68 -5 1 -45 12 -87 24 -43 11 -85 23 -95 25 -10 2 -52 14 -93 25 -89 25
-186 51 -295 79 -44 11 -110 29 -147 40 -38 11 -68 17 -68 14 0 -3 -7 0 -15 7
-8 7 -15 10 -15 6 0 -3 -11 -1 -25 4 -27 10 -71 21 -92 22 -7 1 -13 5 -13 11
0 5 -6 7 -12 4 -7 -2 -28 2 -45 9 -18 7 -33 11 -33 9 0 -2 -15 1 -32 7 -18 5
-67 19 -108 29 -41 11 -89 24 -107 28 -18 5 -35 6 -38 3z"/>
</g>
</svg>
